<?xml version="1.0" encoding="utf-8"?>
<svg version="1.1" id="Capa_1" x="0px" y="0px" viewBox="230.654 61.055 617.336 957.89" style="enable-background:new 0 0 1080 1080;" xmlns="http://www.w3.org/2000/svg">
  <style type="text/css">
	.st0{fill:#1E1913;}
	.st1{fill:#D2B314;}
	.st2{fill:#D59C4C;}
	.st3{fill:#A47D00;}
	.st4{fill:#B49A76;}
	.st5{fill:#A72E27;}
	.st6{fill:#E2B20B;}
	.st7{fill:#D6AF5B;}
	.st8{fill:#EACA5A;}
	.st9{fill:#FFFFFF;}
</style>
  <g>
    <path class="st0" d="M595.27,65c1.42,2.13,1.25,4.54,1.25,6.93c-0.01,54.58,0.05,109.16-0.11,163.74 c-0.01,4.21,1.19,5.97,5.31,6.55c4.45,0.64,8.85,1.76,13.18,3.01c3.46,1,4.33,0.07,4.3-3.49c-0.16-18.57-0.08-37.14-0.08-55.71 c0-7.27,0.1-14.54-0.05-21.8c-0.08-3.77,1.48-5.16,5.19-5.12c14.6,0.17,12.61-1.24,12.65,12.19c0.07,25.35,0.08,50.71-0.06,76.06 c-0.02,3.21,0.74,4.73,3.98,5.8c10.83,3.59,21.26,8.24,32.36,13.6c0-2.36,0-4.18,0-6.01c0-42.63-0.01-85.26-0.01-127.89 c0-7.8,0-7.8,7.76-7.8c10.43,0,10.2-1.25,10.19,10.23c-0.04,45.54,0.02,91.08-0.09,136.61c-0.01,3.25,0.84,5.18,3.77,6.9 c7.02,4.12,13.76,8.72,20.68,13.18c0.99-2.05,0.58-3.84,0.58-5.57c0.03-18.57,0.1-37.14-0.05-55.71c-0.04-4.19,1.4-5.77,5.62-5.69 c18.11,0.34,14.98-2.31,15.11,15.01c0.17,21.48,0.12,42.95-0.04,64.43c-0.02,3.35,0.87,5.61,3.39,7.89 c50.89,46.01,82.55,102.85,95.27,170.23c2.16,11.42,3.38,22.98,4.15,34.58c2.17,27.78-0.8,48.57-1.72,55.65 c-8.52,65.98-35.78,123-81.58,171.18c-9.47,9.96-19.57,19.27-30.53,27.57c-2.65,2-3.34,4.21-3.34,7.37 c0.08,62.52,0.06,125.03,0.05,187.55c0,6.99-0.01,6.99-6.94,7c-3.07,0-6.14,0.01-9.21,0c-6.23-0.02-6.35-0.13-6.36-6.14 c-0.01-4.52,0-9.05,0-13.57c0-52.5,0-105,0-157.5c0-1.74,0-3.48,0-5.88c-7.71,4.29-14.96,8.28-22.17,12.35 c-2.01,1.14-1.07,3.22-1.08,4.85c-0.05,36.51-0.04,73.02-0.04,109.52c0,7.56-0.01,7.62-7.55,7.56 c-15.02-0.13-12.83,1.9-12.88-12.74c-0.09-31.5-0.12-63,0.06-94.5c0.02-4.27-1.08-4.52-4.49-2.94c-3.64,1.69-7.4,3.29-11.27,4.3 c-3.26,0.84-3.73,2.58-3.73,5.52c0.08,45.88,0.05,91.75,0.04,137.63c0,7.19-0.15,7.33-7.33,7.34c-4.52,0-9.05-0.17-13.56,0.05 c-3.96,0.2-5.47-1.27-5.43-5.31c0.15-15.34,0.06-30.69,0.06-46.04c0-28.43-0.07-56.86,0.08-85.29c0.02-3.96-0.87-4.93-4.81-3.92 c-6.24,1.59-12.59,2.98-18.97,3.67c-4,0.43-4.52,2.09-4.51,5.52c0.1,41.19,0.07,82.38,0.07,123.58c0,15.67,0.01,31.34-0.01,47.01 c-0.01,6.04-0.38,6.4-6.19,6.43c-13.95,0.08-13.95,0.08-13.95-14.04c0-53.47,0.01-106.94-0.05-160.41c0-2.14,1.48-5.87-3.23-4.9 c-3.22,0.66-8.27-2.46-8.2,5.02c0.3,32.31,0.13,64.61,0.12,96.92c0,6.51-0.08,6.58-6.43,6.57c-3.88,0-7.76-0.16-11.63,0.04 c-3.83,0.2-5.2-1.49-5.14-5.16c0.11-7.27,0.02-14.54,0.02-21.81c0-25.52-0.08-51.05,0.08-76.57c0.02-3.67-0.8-5.15-4.71-5.09 c-4.66,0.07-9.36-0.41-13.99-1c-3.2-0.41-3.99,0.53-3.98,3.74c0.12,31.18,0.07,62.35,0.07,93.53c0,17.77-0.16,35.54,0.1,53.31 c0.07,4.84-1.68,6.36-6.19,6.07c-3.7-0.24-7.44-0.23-11.14-0.03c-3.99,0.22-5.36-1.39-5.33-5.39c0.14-20.68,0.06-41.35,0.06-62.03 c0-29.56-0.05-59.12,0.08-88.68c0.01-3.1-0.68-4.57-3.89-5.17c-16.04-2.99-31.61-7.7-46.76-13.69c-3.64-1.44-3.87-0.2-3.86,2.89 c0.08,24.23,0.05,48.46,0.05,72.69c0,6.44-0.35,6.77-6.87,6.78c-3.55,0-7.12-0.15-10.66,0.04c-3.77,0.2-5.28-1.4-5.23-5.11 c0.1-7.59,0.03-15.18,0.03-22.78c0-20.68-0.07-41.35,0.06-62.03c0.02-2.95-0.79-4.58-3.49-5.99c-7.27-3.81-14.32-8.03-21.5-12.03 c-1.17-0.65-2.21-2.42-3.7-1.4c-1.12,0.77-0.46,2.43-0.46,3.67c-0.03,45.72-0.02,91.43-0.03,137.15c0,10.23,1.18,9.62-9.67,9.67 c-7.89,0.03-7.9,0.02-7.9-7.66c0-50.4-0.04-100.8,0.07-151.2c0.01-3.69-1-6.08-3.99-8.47C292.63,722.82,253.78,658.81,243,579.92 c-14.38-105.21,18.47-194.64,96.18-267.3c2.31-2.16,3.32-4.21,3.31-7.41c-0.13-28.43-0.08-56.86-0.06-85.29 c0-6.21,0.33-6.5,6.65-6.52c3.39-0.01,6.8,0.21,10.17-0.06c4.52-0.37,5.9,1.55,5.87,5.92c-0.15,22.13-0.07,44.26-0.07,66.39 c0,1.6,0,3.2,0,4.72c1.83,0.74,2.62-0.6,3.58-1.26c7.45-5.11,14.98-10.1,22.97-14.32c3-1.58,3.95-3.43,3.94-6.75 c-0.11-44.42-0.07-88.85-0.08-133.27c0-1.62,0.12-3.24-0.03-4.84c-0.35-3.8,1.27-5.27,5.06-5.04c3.7,0.23,7.43,0.05,11.14,0.06 c6.22,0.02,6.3,0.08,6.3,6.16c0.01,27.95,0.01,55.89,0.01,83.84c0,15.18,0,30.36,0,46.16c6.86-2.67,13.31-5.41,19.93-7.68 c8.06-2.76,16.2-5.36,24.44-7.54c3.73-0.99,5.06-2.33,5.03-6.43c-0.23-29.4-0.12-58.8-0.12-88.2c0-6.36,0.22-6.59,6.5-6.61 c12.97-0.05,11.13-0.67,11.15,11.15c0.06,26.82,0.12,53.63-0.08,80.45c-0.03,3.98,0.98,4.51,4.57,3.7 c4.7-1.07,9.54-1.92,14.34-2.08c3.97-0.14,4.57-1.73,4.57-5.24c-0.11-42.65-0.07-85.29-0.08-127.94c0-10.2-0.02-10.24,10.25-10.21 c14.3,0.04,12.37-1.4,12.4,12.37c0.07,40.71,0.03,81.42,0.03,122.12c0,6.7,0,6.7,6.47,6.65c10.75-0.1,10.75-0.1,10.75-11.11 c0-27.14,0-54.28,0-81.42c0-6.9,0.28-7.19,6.95-7.22c4.2-0.02,8.41,0.22,12.59-0.07c4.71-0.33,6.18,1.62,6.16,6.21 c-0.14,30.21-0.07,60.42-0.07,90.62c0,1.13-0.05,2.26,0.02,3.39c0.14,2.31,2.1,1.48,3.32,1.79c1.76,0.45,1.69-0.88,1.71-2.01 c0.02-1.29,0.01-2.58,0.01-3.88c0-53.31,0.01-106.62-0.02-159.92c0-2.41,0.14-4.74,1.01-7C584.93,65,590.1,65,595.27,65z M424.67,809.67c1.82,0.65,3.18,1.09,4.5,1.63c16.71,6.78,33.91,11.94,51.59,15.39c4.09,0.8,5.51,2.06,5.49,6.4 c-0.16,47.82-0.1,95.63-0.1,143.45c0,11.5,0,11.39,11.5,11.25c2.91-0.04,4.01-0.79,3.88-3.8c-0.21-5-0.06-10.01-0.06-15.02 c0-44.26,0.09-88.52-0.13-132.79c-0.02-4.98,1.57-6.07,6.02-5.5c6.23,0.79,12.52,1.7,18.78,1.65c4.79-0.04,5.28,1.93,5.26,5.92 c-0.14,30.21-0.08,60.42-0.08,90.62c0,11.59,0,11.43,11.49,11.64c3.89,0.07,4.83-1.1,4.81-4.91c-0.15-31.82-0.08-63.65-0.08-95.47 c0-7.14-0.02-7.11,6.82-7.55c1.76-0.11,3.49-0.57,5.25-0.75c6.26-0.64,6.27-0.62,6.27,5.5c0,55.57,0,111.14,0,166.71 c0,1.29,0.09,2.59-0.01,3.88c-0.2,2.42,0.65,3.67,3.26,3.44c1.44-0.12,2.93-0.2,4.35,0.02c4.24,0.65,5.39-0.95,5.38-5.27 c-0.16-49.43-0.1-98.86-0.1-148.29c0-7.75,0.11-15.51-0.06-23.26c-0.07-3.23,0.42-4.55,4.29-5.03c8.71-1.08,17.38-2.85,25.88-5.05 c4.52-1.17,5.09,0.11,5.08,4.13c-0.11,40.71-0.1,81.42-0.02,122.12c0.01,4.77-2.13,11.15,1.02,13.87 c2.73,2.35,8.95,0.42,13.58,0.88c4.16,0.41,4.61-1.48,4.59-4.97c-0.12-25.85-0.07-51.69-0.07-77.54c0-20.35-0.02-40.71,0.06-61.06 c0.01-1.69-1.04-3.87,1.75-4.87c8.08-2.92,16.09-6.02,24.6-9.22c0,2.27,0,4.02,0,5.78c0,34.09-0.01,68.17,0.03,102.26 c0,1.55-0.74,4.02,0.78,4.48c3.7,1.13,7.8,1.01,11.47,0.14c2.2-0.52,1-3.7,1.01-5.64c0.07-36.51,0.04-73.02,0.08-109.52 c0-2.08-0.75-4.35,2.24-5.63c8.36-3.59,15.94-8.64,23.75-13.24c1.3-0.77,2.63-2.69,4.14-1.8c1.43,0.85,0.61,2.95,0.61,4.49 c0.03,57.19,0.02,114.37,0.02,171.56c0,9.45,0,9.45,9.31,9.45c6.25,0,6.25,0,6.25-6.27c0-62.35,0.02-124.71-0.06-187.06 c0-3.17,0.82-5.22,3.45-7.27c11.89-9.26,22.93-19.47,33.33-30.41c17.57-18.51,32.45-38.97,44.52-61.4 c13.84-25.71,24.09-52.72,29.68-81.56c3.86-19.93,6.35-39.89,6.41-60.15c0.04-12.07-1.24-24.04-2.51-36.06 c-2.1-19.76-6.54-38.85-12.65-57.63c-6.92-21.24-16.74-41.11-28.12-60.32c-14.1-23.81-31.43-44.87-52.01-63.31 c-5.28-4.73-8.81-9.58-8.45-17.81c0.88-20.64,0.29-41.34,0.29-62.02c0-9.18-0.01-8.94-9-9.23c-4.07-0.13-4.7,1.36-4.67,4.95 c0.15,19.87,0.08,39.74,0.04,59.61c0,1.52,0.51,3.15-0.52,4.66c-8.96-5.9-17.55-12.26-26.84-17.34c-4.15-2.27-4.78-4.63-4.77-8.58 c0.08-46.2,0.06-92.4,0.03-138.6c0-1.71,0.89-4.22-0.66-5c-2.57-1.3-5.73-0.79-8.53-0.3c-2.48,0.43-1.34,2.93-1.34,4.47 c-0.06,44.26-0.05,88.52-0.05,132.79c0,1.87,0,3.75,0,5.99c-13.15-5.55-25.32-12.07-38.46-16.21c-4.07-1.28-5.31-3.19-5.27-7.48 c0.23-26.98,0.13-53.95,0.08-80.93c0-1.53,0.8-4.03-0.82-4.4c-2.75-0.63-5.9-0.72-8.61-0.01c-2.29,0.6-1.1,3.38-1.1,5.14 c-0.07,25.85-0.09,51.69,0.01,77.54c0.01,3.58-0.11,4.72-4.59,3.85c-6.85-1.34-13.27-4.38-20.27-4.85 c-3.62-0.24-4.6-1.92-4.56-5.51c0.2-17.44,0.09-34.89,0.09-52.34c0-37.8,0.01-75.6-0.03-113.4c0-1.53,0.83-4.03-0.76-4.43 c-2.74-0.68-5.86-0.78-8.61-0.16c-2.42,0.54-1.26,3.3-1.26,5.03c-0.06,53.47-0.05,106.94-0.04,160.41c0,7.33,0,7.23-7.04,6.93 c-3.78-0.16-5.58-1.09-5.54-5.61c0.25-27.94,0.17-55.89,0.08-83.84c-0.01-3.97,1.81-9.14-0.83-11.62 c-2.59-2.43-7.73-0.29-11.69-0.8c-4.52-0.58-5.97,0.76-5.92,5.63c0.26,29.72,0.01,59.45,0.26,89.17c0.04,4.5-1.36,5.46-5.42,5.17 c-4.66-0.33-9.38-0.36-14.04,0c-4.03,0.32-5.08-0.93-5.07-5c0.16-42.16,0.09-84.32,0.1-126.49c0-10.11,0-9.85-10.06-10.21 c-4.55-0.16-5.49,1.27-5.48,5.6c0.16,44.1,0.05,88.2,0.17,132.3c0.01,4.13-1.13,5.83-5.42,5.59c-6.32-0.36-12.45,1.46-18.66,2.28 c-6.7,0.89-6.66,1.15-6.66-5.33c0-28.43,0.01-56.86-0.04-85.29c0-1.5,0.84-3.94-0.97-4.32c-2.76-0.57-5.88-0.61-8.57,0.12 c-1.84,0.5-0.92,3.15-0.92,4.82c-0.05,29.72-0.09,59.45,0.04,89.17c0.01,3.35-0.83,5-4.26,5.55c-6.01,0.96-11.67,3.35-17.45,5.11 c-10.23,3.12-20.11,7.43-30.07,11.41c-4.84,1.93-4.79,2.1-4.8-3.09c0-41.52,0-83.03,0-124.55c0-9.01-0.01-9.01-8.79-9.01 c-6.53,0-6.54,0-6.54,6.55c0,45.07-0.05,90.14,0.08,135.21c0.01,3.55-1.06,5.48-4.2,7.14c-9.84,5.19-19.08,11.37-28.16,17.8 c-1.44,1.02-2.7,2.62-5.01,2.68c0-23.52,0-46.77,0-70.02c0-10.45,0-10.27-10.68-10.49c-3.86-0.08-4.83,1.06-4.81,4.82 c0.15,27.95,0.01,55.89,0.17,83.84c0.02,3.72-1.05,6.28-3.86,8.69c-13.69,11.81-25.91,25.06-36.89,39.38 c-40.2,52.4-61.36,111.51-62.3,177.73c-0.4,28.42,2.85,56.33,10.6,83.72c17.96,63.47,53.2,115.27,105.13,155.77 c2.93,2.29,3.8,4.53,3.79,8.05c-0.11,37.64-0.07,75.28-0.07,112.92c0,13.41-0.02,26.82,0.03,40.22c0.01,1.33-0.72,2.99,0.97,3.91 c4.3,2.35,9.41-0.57,9.41-5.37c0.01-47.82,0.01-95.63,0.03-143.45c0-1.65-0.4-3.42,0.73-5.26c10.42,6.69,20.63,13.13,31.53,18.28 c3.25,1.53,3.88,3.5,3.87,6.74c-0.11,25.68-0.06,51.37-0.06,77.05c0,10.63,0.01,10.44,10.43,10.69c3.91,0.09,5.17-0.77,5.13-4.95 c-0.22-24.88-0.11-49.75-0.11-74.63C424.67,813.53,424.67,811.8,424.67,809.67z"/>
    <path class="st1" d="M424.67,809.67c0,2.13,0,3.86,0,5.59c0,24.88-0.11,49.76,0.11,74.63c0.04,4.18-1.22,5.04-5.13,4.95 c-10.42-0.25-10.43-0.06-10.43-10.69c0-25.68-0.05-51.37,0.06-77.05c0.01-3.23-0.62-5.2-3.87-6.74 c-10.91-5.15-21.11-11.59-31.53-18.28c-1.13,1.84-0.73,3.61-0.73,5.26c-0.03,47.82-0.03,95.63-0.03,143.45 c0,4.8-5.11,7.73-9.41,5.37c-1.69-0.92-0.96-2.59-0.97-3.91c-0.06-13.41-0.03-26.82-0.03-40.22c0-37.64-0.05-75.28,0.07-112.92 c0.01-3.52-0.85-5.76-3.79-8.05c-51.93-40.49-87.17-92.3-105.13-155.77c-7.75-27.38-11-55.29-10.6-83.72 c0.94-66.22,22.1-125.32,62.3-177.73c10.99-14.32,23.2-27.57,36.89-39.38c2.8-2.42,3.88-4.97,3.86-8.69 c-0.15-27.95-0.02-55.89-0.17-83.84c-0.02-3.77,0.95-4.9,4.81-4.82c10.67,0.22,10.68,0.04,10.68,10.49c0,23.25,0,46.5,0,70.02 c2.31-0.06,3.57-1.66,5.01-2.68c9.08-6.43,18.32-12.61,28.16-17.8c3.14-1.66,4.21-3.59,4.2-7.14 c-0.13-45.07-0.08-90.14-0.08-135.21c0-6.55,0.01-6.55,6.54-6.55c8.79,0,8.79,0,8.79,9.01c0,41.52,0,83.03,0,124.55 c0,5.19-0.05,5.02,4.8,3.09c9.96-3.98,19.84-8.29,30.07-11.41c5.78-1.76,11.44-4.15,17.45-5.11c3.43-0.55,4.28-2.21,4.26-5.55 c-0.13-29.72-0.09-59.45-0.04-89.17c0-1.67-0.92-4.32,0.92-4.82c2.7-0.73,5.81-0.69,8.57-0.12c1.81,0.37,0.97,2.81,0.97,4.32 c0.05,28.43,0.04,56.86,0.04,85.29c0,6.48-0.04,6.22,6.66,5.33c6.21-0.82,12.34-2.64,18.66-2.28c4.29,0.24,5.43-1.46,5.42-5.59 c-0.12-44.1-0.01-88.2-0.17-132.3c-0.02-4.33,0.93-5.76,5.48-5.6c10.06,0.36,10.06,0.1,10.06,10.21c0,42.16,0.06,84.32-0.1,126.49 c-0.02,4.07,1.04,5.32,5.07,5c4.65-0.37,9.38-0.34,14.04,0c4.06,0.29,5.45-0.67,5.42-5.17c-0.24-29.72,0-59.45-0.26-89.17 c-0.04-4.87,1.4-6.21,5.92-5.63c3.96,0.51,9.1-1.64,11.69,0.8c2.64,2.48,0.82,7.65,0.83,11.62c0.09,27.95,0.17,55.89-0.08,83.84 c-0.04,4.52,1.76,5.46,5.54,5.61c7.04,0.29,7.04,0.39,7.04-6.93c0-53.47-0.02-106.94,0.04-160.41c0-1.73-1.16-4.48,1.26-5.03 c2.75-0.62,5.87-0.52,8.61,0.16c1.59,0.39,0.75,2.89,0.76,4.43c0.04,37.8,0.03,75.6,0.03,113.4c0,17.45,0.11,34.89-0.09,52.34 c-0.04,3.59,0.94,5.26,4.56,5.51c7,0.47,13.42,3.51,20.27,4.85c4.48,0.87,4.61-0.27,4.59-3.85c-0.1-25.85-0.08-51.69-0.01-77.54 c0.01-1.76-1.19-4.54,1.1-5.14c2.71-0.71,5.86-0.62,8.61,0.01c1.62,0.37,0.82,2.87,0.82,4.4c0.05,26.98,0.15,53.96-0.08,80.93 c-0.04,4.29,1.21,6.2,5.27,7.48c13.13,4.14,25.31,10.66,38.46,16.21c0-2.24,0-4.11,0-5.99c0-44.26-0.01-88.52,0.05-132.79 c0-1.54-1.14-4.04,1.34-4.47c2.8-0.49,5.96-1,8.53,0.3c1.54,0.78,0.66,3.29,0.66,5c0.04,46.2,0.06,92.4-0.03,138.6 c-0.01,3.95,0.63,6.31,4.77,8.58c9.29,5.08,17.88,11.44,26.84,17.34c1.03-1.5,0.51-3.14,0.52-4.66 c0.04-19.87,0.11-39.74-0.04-59.61c-0.03-3.6,0.6-5.08,4.67-4.95c8.99,0.29,9,0.05,9,9.23c0,20.68,0.59,41.38-0.29,62.02 c-0.35,8.23,3.17,13.07,8.45,17.81c20.58,18.44,37.91,39.5,52.01,63.31c11.38,19.21,21.2,39.08,28.12,60.32 c6.12,18.78,10.56,37.88,12.65,57.63c1.28,12.02,2.55,23.99,2.51,36.06c-0.07,20.26-2.55,40.22-6.41,60.15 c-5.59,28.84-15.84,55.85-29.68,81.56c-12.08,22.42-26.96,42.89-44.52,61.4c-10.39,10.95-21.43,21.16-33.33,30.41 c-2.63,2.05-3.46,4.1-3.45,7.27c0.08,62.35,0.06,124.71,0.06,187.06c0,6.27,0,6.27-6.25,6.27c-9.31,0-9.31,0-9.31-9.45 c0-57.19,0-114.37-0.02-171.56c0-1.54,0.81-3.65-0.61-4.49c-1.51-0.9-2.83,1.03-4.14,1.8c-7.81,4.61-15.4,9.65-23.75,13.24 c-2.99,1.28-2.24,3.56-2.24,5.63c-0.04,36.51-0.01,73.02-0.08,109.52c0,1.94,1.2,5.12-1.01,5.64c-3.68,0.87-7.77,0.98-11.47-0.14 c-1.52-0.46-0.78-2.93-0.78-4.48c-0.03-34.09-0.02-68.17-0.03-102.26c0-1.76,0-3.52,0-5.78c-8.5,3.2-16.52,6.3-24.6,9.22 c-2.79,1.01-1.74,3.18-1.75,4.87c-0.08,20.35-0.06,40.71-0.06,61.06c0,25.85-0.06,51.69,0.07,77.54c0.02,3.49-0.43,5.38-4.59,4.97 c-4.63-0.46-10.85,1.47-13.58-0.88c-3.15-2.72-1.01-9.1-1.02-13.87c-0.08-40.71-0.09-81.42,0.02-122.12 c0.01-4.02-0.56-5.3-5.08-4.13c-8.5,2.19-17.17,3.96-25.88,5.05c-3.86,0.48-4.36,1.8-4.29,5.03c0.18,7.75,0.06,15.51,0.06,23.26 c0,49.43-0.06,98.86,0.1,148.29c0.01,4.32-1.14,5.92-5.38,5.27c-1.42-0.22-2.91-0.14-4.35-0.02c-2.61,0.22-3.46-1.03-3.26-3.44 c0.11-1.28,0.01-2.58,0.01-3.88c0-55.57,0-111.14,0-166.71c0-6.13-0.01-6.15-6.27-5.5c-1.76,0.18-3.49,0.63-5.25,0.75 c-6.84,0.44-6.82,0.41-6.82,7.55c0.01,31.82-0.07,63.65,0.08,95.47c0.02,3.81-0.92,4.98-4.81,4.91 c-11.49-0.21-11.49-0.04-11.49-11.64c0-30.21-0.06-60.42,0.08-90.62c0.02-4-0.47-5.96-5.26-5.92c-6.26,0.05-12.54-0.86-18.78-1.65 c-4.45-0.57-6.05,0.53-6.02,5.5c0.22,44.26,0.13,88.52,0.13,132.79c0,5.01-0.15,10.02,0.06,15.02c0.13,3.01-0.97,3.77-3.88,3.8 c-11.51,0.15-11.5,0.25-11.5-11.25c0-47.82-0.06-95.63,0.1-143.45c0.01-4.34-1.4-5.6-5.49-6.4c-17.68-3.45-34.88-8.61-51.59-15.39 C427.85,810.76,426.49,810.33,424.67,809.67z M733.02,322.57c0,5.39,0,9.87,0,14.34c0,9.22,0,9.06-9,9.24 c-3.5,0.07-4.81-0.7-4.69-4.49c0.29-9.19,0-18.4,0.16-27.6c0.04-2.55-0.75-4.19-2.81-5.63c-6.6-4.62-13-9.53-19.7-14 c-2.92-1.95-5.64-4.56-9.66-5.23c0,26.2-0.11,52.04,0.1,77.88c0.04,4.57-1.78,5.23-5.72,5.32c-3.96,0.08-5.12-0.92-5.09-5.04 c0.2-26.98,0.05-53.96,0.18-80.93c0.01-2.99-0.84-4.64-3.5-5.98c-11.64-5.87-23.52-11.14-35.71-15.75 c-3.47-1.31-4.62-0.9-4.57,3.23c0.22,18.25-0.03,36.51,0.21,54.76c0.06,4.22-1,5.55-5.34,5.44c-3.99-0.1-5.58-0.74-5.52-5.27 c0.28-19.54,0.06-39.09,0.18-58.64c0.02-3.18-0.52-4.79-4.11-5.61c-6.87-1.57-13.76-3.14-20.57-4.91c-4.69-1.23-4.7,0.39-4.7,3.91 c0.07,31.82,0.04,63.65,0.04,95.47c0,19.06,0.02,38.12-0.03,57.19c0,1.48,0.72,3.29-1.27,4.27c-4.79,2.37-9.4-0.42-9.4-5.72 c0-50.89-0.08-101.77,0.12-152.66c0.02-4.62-1.68-6.01-5.7-6.04c-0.81,0-1.69,0.11-2.4-0.17c-4.36-1.7-4.54,0.69-4.52,4.1 c0.11,19.55-0.02,39.09,0.12,58.64c0.02,3.33-0.8,4.67-4.28,4.35c-3.04-0.28-6.16-0.33-9.19,0.01c-4.12,0.46-5.09-1.11-5.05-5.09 c0.2-19.87,0.01-39.74,0.16-59.61c0.03-3.36-0.83-4.54-4.28-4.36c-5.15,0.27-10.35,0.34-15.5-0.02c-4.03-0.28-4.68,1.37-4.67,4.95 c0.12,36.99,0.07,73.99,0.07,110.98c0,11.53,0,11.41-11.78,11.32c-3.07-0.02-3.78-0.96-3.73-3.86c0.16-9.85,0.06-19.71,0.06-29.56 c0-29.4-0.08-58.8,0.09-88.2c0.02-4.1-1.1-4.91-4.96-4.14c-6.93,1.38-13.98,2.13-20.96,3.24c-4.08,0.65-4.91,2.14-4.89,5.84 c0.13,24.07-0.05,48.14,0.17,72.21c0.04,4.47-0.8,6.24-5.72,6.05c-4.12-0.16-5.04-1.4-5.01-5.31c0.17-23.58-0.02-47.17,0.19-70.75 c0.04-4.1-1.31-4.72-4.68-3.57c-4.79,1.63-9.73,2.72-14.56,4.28c-11.39,3.67-22.39,8.24-33.34,13c-3.06,1.33-4.13,3.14-4.11,6.58 c0.15,31.5,0.09,63,0.09,94.5c0,10.31,0,10.14-10.37,10.35c-3.9,0.08-5.22-0.88-5.19-5.04c0.19-30.05,0.11-60.09,0.11-90.14 c0-1.73,0-3.45,0-5.56c-1.11,0.37-1.73,0.48-2.25,0.77c-11.53,6.42-22.37,13.87-32.85,21.89c-1.79,1.37-2.12,2.98-2.09,5.03 c0.08,5.49,0.05,10.98,0,16.48c-0.01,1.19,0.46,2.97-1.43,3.04c-4.35,0.16-9.01,0.96-12.96-0.3c-2.47-0.79-0.5-5.26-1.13-8.01 c-0.05-0.22-0.42-0.37-0.64-0.55c-137.89,125.85-116.47,338.48,17.25,439.41c0-6.27,0.3-12.21-0.1-18.1 c-0.3-4.49,2.36-3.95,5.12-3.95c2.73,0,5.53-0.77,5.35,3.81c-0.29,7.42,0.24,14.88-0.18,22.28c-0.2,3.53,1.48,5.83,3.82,7.07 c4.98,2.64,9.48,6,14.34,8.81c5.83,3.37,11.39,7.25,18.18,9.57c0-5.04,0-9.71,0-14.39c-0.01-11.38-0.01-11.22,11.36-11.26 c3.59-0.01,4.23,1.28,4.16,4.48c-0.2,8.56,0.03,17.12-0.13,25.68c-0.05,2.5,0.79,3.75,3.07,4.64c13.51,5.29,27.21,9.92,41.11,14.13 c3.77,1.14,7.96,0.33,11.62,3.05c3.16,2.34,5.74,0.15,5.74-4.08c0.01-23.75,0-47.49,0-71.24c0-8.56-0.03-17.12,0.03-25.69 c0.01-1.65-0.59-4.01,2.12-4.04c4.16-0.05,8.91-1.5,12.29,0.66c2.45,1.56,0.61,6.03,0.85,9.18c0.16,2.09,0.03,4.2,0.03,6.3 c0,29.08,0.07,58.16-0.06,87.23c-0.02,4.52,1.29,6.34,6.08,6.07c5.21-0.3,10.42-0.48,15.66,1.38c5.1,1.81,8.16-1,8.16-6.28 c0-22.62,0.01-45.23,0.01-67.85c0-11.82,0-11.7,11.91-11.69c3.4,0,4.43,1,4.38,4.41c-0.18,12.6-0.07,25.2-0.06,37.8 c0,13.41,0.07,26.82-0.04,40.22c-0.02,2.87,0.73,3.87,3.8,3.93c3.5,0.06,6.55-1.91,9.79-1.8c4.39,0.15,4.85-1.75,4.84-5.43 c-0.1-49.11-0.08-98.22-0.05-147.33c0-8.02-1.16-6.91,7.16-7.35c4.79-0.25,5.81,1.35,5.79,5.91c-0.16,49.11-0.06,98.22-0.16,147.33 c-0.01,3.66,0.67,5.18,4.71,4.7c7.94-0.94,15.59-3.26,23.55-4.25c6.97-0.87,6.92-1.89,6.92-9.38c0-18.58,0.08-37.16-0.06-55.73 c-0.03-3.4,0.99-4.63,4.39-4.34c3.05,0.26,6.18,0.38,9.19-0.02c4.77-0.64,5.86,1.14,5.78,5.78c-0.3,17.12-0.05,34.25-0.18,51.37 c-0.02,3.26,0.66,4.46,3.92,2.92c3.26-1.54,6.76-2.9,10.14-3.68c10.77-2.51,13.73-8.77,12.64-19.34 c-1.06-10.37-0.24-10.37,10.09-9.9c2.26,0.1,3.13,0.67,3.05,3.02c-0.15,4.42-0.04,8.85-0.04,14.11c10-5.2,18.8-10.46,27.36-16.16 c2.58-1.72,3.55-3.59,3.52-6.72c-0.17-14.21,0.01-28.43-0.14-42.65c-0.03-3.18,0.95-4.06,4.09-4.07 c11.53-0.04,11.53-0.16,11.53,11.12c0,5.01,0,10.02,0,15.02c0,4.09,0,8.18,0,12.77C854.24,655.95,868.16,444.16,733.02,322.57z"/>
    <path class="st0" d="M733.02,322.57c135.14,121.59,121.22,333.38-13.89,438.36c0-4.59,0-8.68,0-12.77c0-5.01,0-10.02,0-15.02 c0-11.28,0-11.17-11.53-11.12c-3.15,0.01-4.13,0.89-4.09,4.07c0.15,14.21-0.04,28.43,0.14,42.65c0.04,3.13-0.94,5-3.52,6.72 c-8.56,5.7-17.36,10.96-27.36,16.16c0-5.26-0.11-9.69,0.04-14.11c0.08-2.35-0.78-2.92-3.05-3.02c-10.33-0.48-11.16-0.47-10.09,9.9 c1.08,10.57-1.87,16.84-12.64,19.34c-3.37,0.78-6.87,2.15-10.14,3.68c-3.25,1.53-3.94,0.33-3.92-2.92 c0.13-17.12-0.11-34.25,0.18-51.37c0.08-4.63-1.01-6.42-5.78-5.78c-3.01,0.4-6.15,0.28-9.19,0.02c-3.4-0.29-4.41,0.94-4.39,4.34 c0.14,18.58,0.07,37.15,0.06,55.73c0,7.49,0.05,8.51-6.92,9.38c-7.96,0.99-15.61,3.31-23.55,4.25c-4.04,0.48-4.72-1.04-4.71-4.7 c0.11-49.11,0-98.22,0.16-147.33c0.01-4.56-1-6.17-5.79-5.91c-8.32,0.44-7.16-0.67-7.16,7.35c-0.03,49.11-0.05,98.22,0.05,147.33 c0.01,3.68-0.46,5.59-4.84,5.43c-3.23-0.11-6.29,1.86-9.79,1.8c-3.06-0.06-3.82-1.05-3.8-3.93c0.11-13.41,0.04-26.82,0.04-40.22 c0-12.6-0.12-25.2,0.06-37.8c0.05-3.41-0.98-4.4-4.38-4.41c-11.91-0.01-11.91-0.14-11.91,11.69c0,22.62-0.01,45.23-0.01,67.85 c0,5.28-3.06,8.09-8.16,6.28c-5.24-1.86-10.45-1.68-15.66-1.38c-4.79,0.27-6.1-1.54-6.08-6.07c0.13-29.08,0.06-58.16,0.06-87.23 c0-2.1,0.13-4.21-0.03-6.3c-0.25-3.16,1.59-7.63-0.85-9.18c-3.39-2.15-8.14-0.71-12.29-0.66c-2.71,0.03-2.11,2.4-2.12,4.04 c-0.05,8.56-0.03,17.12-0.03,25.69c0,23.75,0.01,47.49,0,71.24c0,4.23-2.58,6.42-5.74,4.08c-3.67-2.72-7.85-1.91-11.62-3.05 c-13.9-4.21-27.6-8.84-41.11-14.13c-2.27-0.89-3.12-2.14-3.07-4.64c0.16-8.56-0.07-17.13,0.13-25.68c0.07-3.2-0.57-4.49-4.16-4.48 c-11.37,0.04-11.36-0.12-11.36,11.26c0,4.67,0,9.35,0,14.39c-6.79-2.32-12.35-6.21-18.18-9.57c-4.86-2.81-9.36-6.16-14.34-8.81 c-2.34-1.24-4.01-3.54-3.82-7.07c0.42-7.41-0.11-14.86,0.18-22.28c0.18-4.57-2.63-3.81-5.35-3.81c-2.76,0-5.42-0.54-5.12,3.95 c0.4,5.89,0.1,11.83,0.1,18.1c-133.73-100.94-155.14-313.56-17.25-439.41c0.22,0.18,0.58,0.33,0.64,0.55 c0.63,2.74-1.34,7.22,1.13,8.01c3.96,1.26,8.61,0.46,12.96,0.3c1.89-0.07,1.42-1.85,1.43-3.04c0.05-5.49,0.08-10.99,0-16.48 c-0.03-2.04,0.3-3.65,2.09-5.03c10.47-8.02,21.32-15.47,32.85-21.89c0.52-0.29,1.15-0.4,2.25-0.77c0,2.11,0,3.83,0,5.56 c0,30.05,0.08,60.09-0.11,90.14c-0.03,4.16,1.29,5.11,5.19,5.04c10.37-0.2,10.37-0.04,10.37-10.35c0-31.5,0.06-63-0.09-94.5 c-0.02-3.44,1.05-5.24,4.11-6.58c10.95-4.76,21.95-9.33,33.34-13c4.83-1.56,9.77-2.64,14.56-4.28c3.38-1.15,4.72-0.53,4.68,3.57 c-0.2,23.58-0.01,47.17-0.19,70.75c-0.03,3.9,0.89,5.15,5.01,5.31c4.92,0.19,5.76-1.58,5.72-6.05 c-0.21-24.07-0.04-48.14-0.17-72.21c-0.02-3.7,0.81-5.19,4.89-5.84c6.98-1.11,14.03-1.85,20.96-3.24c3.86-0.77,4.98,0.04,4.96,4.14 c-0.17,29.4-0.09,58.8-0.09,88.2c0,9.85,0.1,19.71-0.06,29.56c-0.05,2.89,0.66,3.83,3.73,3.86c11.78,0.08,11.78,0.21,11.78-11.32 c0-36.99,0.04-73.99-0.07-110.98c-0.01-3.58,0.63-5.23,4.67-4.95c5.14,0.36,10.34,0.29,15.5,0.02c3.45-0.18,4.31,1,4.28,4.36 c-0.15,19.87,0.04,39.74-0.16,59.61c-0.04,3.98,0.94,5.55,5.05,5.09c3.03-0.34,6.15-0.29,9.19-0.01c3.48,0.32,4.3-1.02,4.28-4.35 c-0.15-19.55-0.02-39.09-0.12-58.64c-0.02-3.41,0.16-5.8,4.52-4.1c0.72,0.28,1.6,0.17,2.4,0.17c4.02,0.02,5.72,1.41,5.7,6.04 c-0.2,50.89-0.12,101.77-0.12,152.66c0,5.3,4.6,8.08,9.4,5.72c1.98-0.98,1.26-2.79,1.27-4.27c0.05-19.06,0.03-38.12,0.03-57.19 c0-31.82,0.03-63.65-0.04-95.47c-0.01-3.52,0-5.14,4.7-3.91c6.8,1.78,13.7,3.35,20.57,4.91c3.6,0.82,4.13,2.44,4.11,5.61 c-0.12,19.55,0.1,39.1-0.18,58.64c-0.06,4.53,1.53,5.17,5.52,5.27c4.34,0.11,5.39-1.22,5.34-5.44 c-0.24-18.25,0.02-36.51-0.21-54.76c-0.05-4.13,1.1-4.53,4.57-3.23c12.19,4.6,24.07,9.88,35.71,15.75c2.66,1.34,3.51,2.99,3.5,5.98 c-0.13,26.98,0.02,53.96-0.18,80.93c-0.03,4.12,1.13,5.13,5.09,5.04c3.94-0.08,5.76-0.75,5.72-5.32 c-0.21-25.84-0.1-51.68-0.1-77.88c4.02,0.67,6.74,3.27,9.66,5.23c6.69,4.48,13.1,9.38,19.7,14c2.05,1.44,2.85,3.08,2.81,5.63 c-0.16,9.2,0.13,18.41-0.16,27.6c-0.12,3.79,1.19,4.56,4.69,4.49c9-0.18,9-0.02,9-9.24C733.02,332.44,733.02,327.97,733.02,322.57z M636.91,268.45c0,18-0.01,35.28,0,52.56c0.01,11.75,0.9,10.6-10.74,10.59c-7.02-0.01-7.07-0.06-7.07-6.93 c0-19.38-0.05-38.77,0.05-58.15c0.01-2.82-0.48-4.4-3.68-4.97c-4.74-0.84-9.42-2.17-14.04-3.56c-4-1.2-5.04-0.16-5.03,4.13 c0.16,48.46,0.12,96.92,0.09,145.38c-0.01,11.81,1.34,10.55-10.63,10.59c-7.08,0.02-7.09,0-7.09-6.9c0-50.88,0-101.76-0.01-152.65 c0-2.29,0.82-5.24-3.17-4.88c-3.73,0.34-1.77,3.29-1.79,4.85c-0.16,18.57-0.21,37.15-0.04,55.73c0.04,4.5-1.25,6.62-6.05,6.31 c-4.5-0.29-9.05-0.27-13.56,0c-4.63,0.28-6.23-1.5-6.17-6.17c0.21-16.96,0.08-33.92,0.08-50.88c0-12.54,0-12.38-12.8-12.27 c-3.72,0.03-4.52,1.22-4.49,4.74c0.16,21.16,0.08,42.32,0.08,63.48c0,17.77-0.1,35.54,0.06,53.3c0.04,4.3-1.27,6.34-5.81,6.04 c-3.7-0.24-7.44-0.23-11.14-0.01c-4.49,0.27-5.96-1.71-5.84-6.05c0.23-8.39,0.07-16.8,0.07-25.2c0-30.04-0.07-60.08,0.08-90.12 c0.02-3.78-0.77-4.69-4.53-3.8c-4.85,1.14-9.85,1.83-14.82,2.22c-3.43,0.27-4.13,1.73-4.11,4.89c0.12,22.61,0.12,45.23,0.05,67.84 c-0.05,13.35,1.86,11.52-11.88,11.83c-4.44,0.1-5.91-1.35-5.86-5.84c0.2-19.06,0.09-38.12,0.09-57.18c0-5.42,0-10.85,0-16.69 c-16.53,4.49-32.1,10.01-47.17,17.01c-2.19,1.02-2.1,2.42-2.1,4.17c0.01,8.24,0,16.48,0,24.71c0,25.68-0.07,51.37,0.08,77.05 c0.02,4.18-1.3,5.97-5.55,5.71c-3.54-0.21-7.1-0.03-10.66-0.04c-6.07-0.02-6.36-0.27-6.36-6.2c-0.01-28.91,0-57.83,0-86.74 c0-1.68,0-3.36,0-5.61c-10.55,6-19.74,12.49-28.76,19.24c-1.54,1.16-1.67,2.57-1.66,4.24c0.04,5.65-0.05,11.31,0.05,16.96 c0.07,3.5-1.43,4.98-4.95,4.85c-4.19-0.16-8.4-0.13-12.6,0c-3.1,0.1-5.14-0.99-5.54-5.38c-69.14,71.46-98.06,155.14-82.64,252.55 c10.99,69.46,45.28,126.35,99.5,172.47c0-2.84-0.02-4.46,0-6.07c0.18-13.98-1.93-11.91,12.5-12.2c3.71-0.07,5.25,1.13,5.15,5 c-0.21,7.75-0.08,15.51-0.04,23.26c0.01,1.39-0.45,2.94,1.05,3.99c8.81,6.14,17.86,11.87,28.07,17.06c0-6.2-0.02-11.65,0-17.1 c0.02-5.84,0.42-6.22,6.4-6.26c3.55-0.02,7.12,0.17,10.66-0.04c4.16-0.25,5.83,1.38,5.72,5.61c-0.2,8.23,0.07,16.48-0.14,24.71 c-0.08,3.01,0.76,4.55,3.68,5.73c15.12,6.08,30.64,10.83,46.49,14.56c3.4,0.8,4.39,0.25,4.36-3.48 c-0.19-20.35-0.09-40.7-0.09-61.06c0-11.47,0.08-22.94-0.06-34.41c-0.04-3.55,1.29-5.01,4.83-4.85c3.38,0.15,6.78,0.02,10.17,0.02 c7.55-0.01,7.55-0.01,7.55,7.41c0,32.14,0.06,64.29-0.09,96.43c-0.02,3.49,0.81,4.9,4.38,4.98c4.84,0.11,9.67,0.56,14.49,1.09 c2.89,0.32,3.95-0.37,3.83-3.55c-0.27-6.94-0.08-13.89-0.08-20.83c0-18.25,0.09-36.51-0.05-54.76c-0.03-4.2,1.41-5.9,5.66-5.61 c3.7,0.26,7.43,0.04,11.14,0.05c6.42,0.01,6.44,0.02,6.44,6.53c0.01,24.55-0.01,49.11,0.03,73.66c0,1.4-0.75,3.6,0.53,4.07 c3.04,1.12,6.41,0.58,9.51-0.04c2.41-0.49,1.24-3,1.24-4.56c0.06-47.65,0.05-95.3,0.05-142.95c0-2.58,0.1-5.17-0.02-7.75 c-0.14-3.01,0.98-4.55,4.17-4.46c3.87,0.1,7.75,0.09,11.63-0.02c3.13-0.09,4.4,1.41,4.36,4.39c-0.04,3.23,0.01,6.46,0.01,9.69 c0,46.04,0.05,92.07-0.08,138.11c-0.01,4.13,0.43,5.84,5.17,4.53c6.19-1.72,12.56-2.89,18.92-3.88c3.55-0.55,4.24-2.2,4.21-5.5 c-0.16-19.22,0.01-38.44-0.15-57.67c-0.04-4.2,1.38-5.88,5.59-5.68c4.67,0.23,9.37,0.05,14.05,0.07c6.26,0.02,6.69,0.42,6.69,6.5 c0.01,15.83,0,31.66,0.02,47.49c0,1.68,0.15,3.36,0.26,5.65c5.77-2.36,10.9-4.63,16.15-6.55c2.44-0.89,3.05-2.26,2.98-4.68 c-0.16-5.65,0.03-11.31-0.09-16.96c-0.06-3.07,1.28-4.5,4.28-4.5c3.88,0,7.75,0.03,11.63,0c3.23-0.02,4.72,1.49,4.6,4.76 c-0.11,3.1-0.02,6.21-0.02,10.17c7.32-4.54,13.69-8.61,20.18-12.45c2.35-1.39,3.19-3.01,3.16-5.77 c-0.15-14.54,0.04-29.08-0.14-43.61c-0.05-4.26,1.53-5.87,5.69-5.61c3.38,0.21,6.78,0.04,10.17,0.05c6.66,0.01,6.73,0.07,6.73,6.82 c0,9.27,0,18.54,0,28.91c42.12-35.94,71.45-79.05,88.1-130.64c16.73-51.82,18.35-104.3,5.21-157.05 c-12.49-50.12-54.68-121.57-78.93-134.67c0,1.22,0.02,2.32,0,3.43c-0.33,16.83,2.95,14.26-15.06,14.62 c-4.6,0.09-5.82-1.82-5.71-6.08c0.23-9.2,0.08-18.41,0.06-27.62c0-1.57,0.37-3.25-1.18-4.46c-7.44-5.8-15.03-11.36-23.79-16.62 c0,2.6,0,4.33,0,6.07c0,21.32,0,42.64,0,63.97c0,11.46,0.9,10.46-10.4,10.47c-7.56,0-7.55-0.01-7.55-7.53 c0.01-26.49,0.02-52.98,0-79.47c0-1.83,0.58-3.84-1.78-5.02C660.3,277.99,649.12,272.72,636.91,268.45z"/>
    <path class="st0" d="M417.34,577.64c11.07-27.13,21.77-53.36,32.47-79.59c5.84-14.31,11.79-28.57,17.45-42.95 c2.25-5.7,5.86-8.32,12.09-8.22c15.18,0.23,30.36,0.06,45.55,0.09c5.19,0.01,6.25,1.19,6.31,6.76c0.07,6.55-0.7,7.5-6.27,7.7 c-0.97,0.04-1.94,0.06-2.9,0.16c-11.73,1.18-14.72,4.11-14.77,15.82c-0.19,41.51-0.18,83.03-0.25,124.55 c0,0.16,0.01,0.32,0.02,0.48c0.41,14.01,2.26,15.94,16.35,17.05c7.52,0.59,8.47,1.28,8.72,6.27c0.4,8.32-0.28,9.03-8.81,9.03 c-24.55,0-49.1,0.01-73.66,0c-6.51,0-10.18-6.64-6.93-12.46c0.9-1.61,2.34-1.96,4.05-2.15c4-0.43,8.04-0.79,11.95-1.65 c6.33-1.39,8.24-3.9,8.55-10.43c0.18-3.87,0.34-7.75,0.34-11.62c0.04-32.63,0.04-65.26,0.05-97.9c0-1.22-0.13-2.44-0.94-3.85 c-3.3,8.11-6.62,16.21-9.89,24.33c-14.25,35.4-28.47,70.8-42.74,106.19c-0.9,2.23-1.79,4.58-3.24,6.44 c-4.22,5.41-12.47,3.99-15.24-2.67c-9.14-22.01-18.14-44.07-27.2-66.11c-8.74-21.26-17.5-42.53-26.8-65.14 c-0.16,2.62-0.31,3.91-0.31,5.2c0.02,27.3,0.07,54.6,0.06,81.9c0,4.72,0.76,9.28,1.79,13.87c2.67,11.91,10,18.71,21.94,20.78 c4.89,0.85,5.91,3.16,5.23,10.52c-0.38,4.1-2.99,4.8-6.43,4.79c-19.87-0.04-39.74-0.04-59.6,0.01c-3.65,0.01-5.72-1.18-5.81-5.29 c-0.17-8.09,0.3-9.28,5.14-9.91c12.44-1.61,20.29-9.32,22.26-21.73c0.71-4.48,0.95-8.98,0.95-13.51c0-36.35-0.05-72.69,0.13-109.04 c0.02-4.26-1.36-6.97-4.93-9.07c-5.41-3.19-11.13-5.16-17.44-4.84c-4.76,0.24-6.19-2.01-6.07-6.47c0.18-6.78,0.6-7.78,6.22-7.83 c17.28-0.16,34.56-0.12,51.85-0.17c4.9-0.01,7.43,2.77,9.22,7.09c14.41,34.81,28.95,69.57,43.45,104.34 C411.79,564.47,414.35,570.53,417.34,577.64z M470.28,475.33c0.4,0.11,0.8,0.21,1.21,0.32c0,1.28,0,2.57,0,3.85 c-0.01,39.09-0.01,78.17-0.03,117.26c0,4.04-0.05,8.08-0.27,12.11c-0.4,7.5-3.65,11.59-10.95,13.41c-3.42,0.85-6.98,1.3-10.51,1.54 c-2.88,0.19-3.78,1.22-3.67,4.16c0.13,3.41,2.26,2.89,4.3,2.89c24.55,0.01,49.09,0,73.64,0.02c2.16,0,4.2,0.26,4.26-3.01 c0.05-3.03-0.89-4.42-4.09-4.49c-3.05-0.07-6.11-0.51-9.12-1.06c-6.85-1.25-9.86-4.64-11.11-11.53c-0.73-4.01-0.92-8-0.92-12.04 c-0.01-35.21-0.05-70.42,0.01-105.63c0.01-7.26-0.27-14.54,0.8-21.76c1.06-7.15,4.46-11.01,11.42-12.6 c2.66-0.61,5.41-1.08,8.13-1.17c2.66-0.08,4.1-0.46,4.01-3.73c-0.09-3.35-2.03-3.01-4.15-3.01c-14.37,0.01-28.75,0.16-43.12-0.08 c-4.93-0.08-7.56,1.64-9.42,6.28c-14,34.83-28.23,69.57-42.41,104.33c-3.43,8.39-6.98,16.74-10.78,25.86 c-1.09-2.01-1.8-3.08-2.28-4.25c-9.22-22.16-18.41-44.34-27.62-66.51c-8.41-20.24-16.85-40.47-25.28-60.7 c-1.09-2.61-2.35-4.93-5.8-4.92c-16.96,0.06-33.91,0.08-50.87,0.03c-2.65-0.01-3.19,1.2-3.2,3.55c-0.01,2.36,0.88,2.98,3.12,3.05 c2.88,0.09,5.8,0.45,8.61,1.1c12.48,2.9,16.61,8.13,16.6,20.76c-0.01,34.56-0.06,69.13-0.02,103.69 c0.01,5.18-0.33,10.32-1.01,15.44c-1.72,12.91-12.57,24.64-24.38,24.88c-3.38,0.07-2.77,2.23-2.94,4.28 c-0.21,2.58,0.9,3.28,3.38,3.27c18.89-0.08,37.79-0.04,56.68-0.04c1.91,0,4.07,0.41,3.9-2.72c-0.13-2.37,0.44-4.37-3.29-5.08 c-12.15-2.33-20.16-9.6-23.38-21.74c-1.41-5.31-2.35-10.66-2.34-16.22c0.06-33.27-0.01-66.54-0.03-99.81c0-1.67,0-3.34,0-5.39 c2.28,1.25,2.4,3.02,2.97,4.4c13.28,32.17,26.49,64.37,39.71,96.57c6.12,14.9,12.25,29.8,18.33,44.71c1.13,2.77,2.15,5.67,5.89,5.3 c3.19-0.31,4.55-2.41,5.07-5.52c0.27-1.63,1.63-3.04,2.28-4.64c16.02-39.74,32-79.49,48.01-119.24 C463.15,492.76,466.73,484.05,470.28,475.33z"/>
    <path class="st0" d="M666.36,577.67c16.65-40.82,32.88-80.61,49.09-120.4c3.86-9.47,5.07-10.32,15.44-10.32 c14.21,0,28.42,0,42.63,0.01c5.5,0,6.61,1.08,6.71,6.35c0.13,6.98-0.59,7.91-6.34,8.13c-0.97,0.04-1.94,0.06-2.9,0.17 c-11.83,1.28-14.65,4.04-14.7,15.87c-0.19,41.35-0.31,82.69-0.2,124.04c0.04,15.16,1.86,16.75,16.84,18 c7.61,0.64,10.41,4.84,8.05,12.07c-1.03,3.15-3.62,3.21-6.3,3.21c-23.25-0.02-46.51-0.01-69.76-0.01c-2.75,0-5.49,0-8.24,0 c-5.51,0-5.32-3.89-5.44-7.76c-0.12-3.74,0.15-6.72,5.09-6.9c3.84-0.14,7.7-0.79,11.47-1.6c6.05-1.3,8.08-3.79,8.45-10.03 c0.26-4.51,0.38-9.04,0.39-13.56c0.04-32.14,0.04-64.28,0.03-96.42c0-1.21-0.12-2.42-0.97-3.82c-4.29,10.66-8.58,21.32-12.87,31.98 c-13.33,33.15-26.67,66.3-40,99.45c-0.24,0.6-0.49,1.19-0.73,1.79c-1.71,4.26-4.54,7.02-9.42,6.93c-4.76-0.08-7.04-3.07-8.7-7.12 c-11.99-29.36-24.05-58.69-36.09-88.03c-5.01-12.21-10.01-24.43-15.03-36.63c-0.51-1.25-1.1-2.47-2.51-3.51c0,1.19,0,2.38,0,3.58 c0.03,27.46,0.1,54.91,0.07,82.37c0,5.39,1,10.56,2.46,15.7c2.96,10.44,10.15,16.09,20.48,18.16c5.65,1.13,6.52,2.71,6.01,10.35 c-0.32,4.79-3.43,5.11-7.12,5.1c-19.54-0.05-39.08-0.06-58.62-0.01c-3.83,0.01-6.07-1.08-6.12-5.48c-0.08-8.02,0.37-9.13,5.34-9.73 c12.01-1.45,20.1-9.23,21.99-21.45c0.62-3.97,0.98-8.03,0.99-12.05c0.09-37.15,0.02-74.3,0.17-111.44 c0.01-3.71-1.29-6.05-4.28-7.95c-5.45-3.46-11.29-5.54-17.78-5.3c-4.07,0.15-6.4-1-6.37-5.66c0.05-7.3,0.5-8.55,5.91-8.61 c17.6-0.18,35.2-0.16,52.8-0.14c4.48,0.01,6.85,2.82,8.47,6.73c10.59,25.58,21.26,51.13,31.91,76.69 C653.07,545.85,659.51,561.28,666.36,577.67z M666.38,587.81c-2.8-6.63-5.01-11.79-7.17-16.96 c-15.87-38.08-31.76-76.15-47.56-114.26c-1.53-3.69-3.93-5.7-7.9-5.7c-15.99-0.01-31.98,0.03-47.97,0.02 c-2.45,0-4.33,0.04-4.31,3.49c0.02,3.33,1.93,3.04,4.08,3.1c6.26,0.2,11.99,2.12,17.37,5.31c4.86,2.88,7.07,6.68,7.03,12.65 c-0.25,36.66-0.16,73.33-0.15,109.99c0,4.37-0.37,8.7-0.97,13.03c-1.48,10.69-10.6,24.53-24.71,24.96 c-3.46,0.11-2.45,2.64-2.64,4.56c-0.29,2.96,1.67,2.9,3.74,2.9c18.73-0.02,37.47-0.01,56.2,0.01c2.02,0,3.96,0.15,3.95-2.81 c0-2.55,0.01-4.29-3.46-5.03c-11.38-2.43-19.28-8.91-22.82-20.52c-1.62-5.31-2.54-10.61-2.57-16.02 c-0.15-34.08-0.14-68.16-0.14-102.24c0-1.3-0.44-2.77,0.8-4.31c0.75,1.41,1.43,2.47,1.9,3.61c14.33,34.87,28.65,69.75,42.96,104.63 c5.26,12.82,10.48,25.65,15.75,38.47c0.96,2.33,2.22,4.33,5.21,4.25c2.66-0.07,4.03-1.72,5.05-3.87c0.35-0.73,0.68-1.46,0.98-2.21 c19.43-48.29,38.85-96.58,58.3-144.85c0.66-1.64,0.91-3.63,3.01-4.91c0.09,1.39,0.2,2.34,0.2,3.29c0,39.9,0.01,79.79-0.07,119.69 c-0.01,4.66,0.11,9.35-0.81,14c-0.98,4.94-3.84,7.87-8.47,9.64c-4.17,1.59-8.53,1.71-12.84,2.15c-2.84,0.29-3.29,1.55-3.24,4.05 c0.05,2.85,1.64,3,3.78,2.99c24.87-0.03,49.74-0.02,74.61-0.01c2.03,0,3.84,0.17,3.81-2.86c-0.03-2.84-0.53-4.71-3.91-4.6 c-3.57,0.11-7.09-0.51-10.54-1.37c-5.45-1.36-8.94-4.46-9.88-10.36c-0.69-4.34-0.92-8.66-0.92-13.02 c-0.01-35.05-0.03-70.1,0-105.15c0.01-6.62,0.01-13.25,0.36-19.86c0.48-9.26,4.67-13.72,13.79-15.23c2.07-0.34,4.15-0.89,6.22-0.85 c2.85,0.06,4.02-0.75,3.93-3.85c-0.1-3.45-2.3-2.86-4.31-2.86c-14.21-0.02-28.43,0.2-42.63-0.13c-5.19-0.12-7.96,1.74-9.85,6.45 c-11.64,29-23.44,57.94-35.24,86.88C678.59,558.25,672.73,572.38,666.38,587.81z"/>
    <path class="st1" d="M470.28,475.33c-3.55,8.72-7.13,17.43-10.64,26.16c-16.01,39.74-31.99,79.5-48.01,119.24 c-0.65,1.6-2,3.02-2.28,4.64c-0.52,3.1-1.88,5.2-5.07,5.52c-3.74,0.37-4.76-2.53-5.89-5.3c-6.08-14.91-12.22-29.81-18.33-44.71 c-13.22-32.2-26.43-64.39-39.71-96.57c-0.57-1.38-0.69-3.15-2.97-4.4c0,2.05,0,3.72,0,5.39c0.02,33.27,0.09,66.54,0.03,99.81 c-0.01,5.56,0.94,10.91,2.34,16.22c3.22,12.15,11.23,19.42,23.38,21.74c3.73,0.71,3.16,2.71,3.29,5.08 c0.17,3.14-1.99,2.72-3.9,2.72c-18.89,0-37.79-0.04-56.68,0.04c-2.48,0.01-3.58-0.69-3.38-3.27c0.16-2.05-0.44-4.21,2.94-4.28 c11.82-0.24,22.67-11.97,24.38-24.88c0.68-5.13,1.02-10.26,1.01-15.44c-0.04-34.56,0.01-69.13,0.02-103.69 c0-12.63-4.12-17.86-16.6-20.76c-2.81-0.65-5.73-1.01-8.61-1.1c-2.25-0.07-3.13-0.7-3.12-3.05c0.01-2.36,0.55-3.56,3.2-3.55 c16.96,0.05,33.91,0.03,50.87-0.03c3.45-0.01,4.71,2.31,5.8,4.92c8.43,20.23,16.87,40.46,25.28,60.7 c9.21,22.17,18.4,44.35,27.62,66.51c0.48,1.16,1.19,2.23,2.28,4.25c3.81-9.12,7.36-17.47,10.78-25.86 c14.19-34.76,28.41-69.5,42.41-104.33c1.87-4.64,4.49-6.37,9.42-6.28c14.37,0.25,28.74,0.1,43.12,0.08c2.12,0,4.06-0.35,4.15,3.01 c0.09,3.27-1.35,3.65-4.01,3.73c-2.72,0.08-5.46,0.56-8.13,1.17c-6.96,1.59-10.37,5.45-11.42,12.6c-1.07,7.22-0.79,14.51-0.8,21.76 c-0.06,35.21-0.02,70.42-0.01,105.63c0,4.04,0.19,8.03,0.92,12.04c1.25,6.89,4.26,10.28,11.11,11.53c3.01,0.55,6.07,0.99,9.12,1.06 c3.2,0.07,4.14,1.46,4.09,4.49c-0.06,3.28-2.1,3.01-4.26,3.01c-24.55-0.01-49.09-0.01-73.64-0.02c-2.05,0-4.17,0.52-4.3-2.89 c-0.11-2.94,0.78-3.97,3.67-4.16c3.52-0.24,7.09-0.69,10.51-1.54c7.3-1.82,10.55-5.91,10.95-13.41c0.22-4.03,0.27-8.07,0.27-12.11 c0.03-39.09,0.03-78.17,0.03-117.26c0-1.28,0-2.57,0-3.85C471.08,475.55,470.68,475.44,470.28,475.33z M323.89,457.96 c10.09,5.76,15.15,15.02,19.28,24.92c18.82,45.22,37.59,90.47,56.43,135.68c0.82,1.97,1.12,4.38,3.46,5.8 c4.26-6.7,2.18-13.08-0.41-19.47c-13.39-32.99-26.71-66.02-40.18-98.98c-5.36-13.12-10.46-26.38-17.32-38.83 C340.86,459.27,332.33,455.54,323.89,457.96z M483.93,537.24c0.39-26.56-0.47-50.47,0.88-74.35c0.09-1.63,1.16-4.08-0.75-4.82 c-2.24-0.87-4.28,0.77-5.83,2.54c-1.32,1.51-1.81,3.39-2.18,5.3c-0.87,4.47-0.86,8.99-0.87,13.51 c-0.01,42.15-0.03,84.29-0.01,126.44c0,6.35-0.87,12.28-6.53,16.32c-0.7,0.5-1.34,1.06-1.17,1.93c0.25,1.33,1.44,0.99,2.34,1.05 c6.79,0.42,12.15-3.88,13.08-10.73c0.52-3.83,0.97-7.7,0.99-11.56C483.97,580.1,483.93,557.33,483.93,537.24z M333.96,609.16 c-3.45,7.01-7.74,12.01-14.05,15.9c8.68,0,16.64,0,25.45,0C339.75,620.71,336.13,616.08,333.96,609.16z"/>
    <path class="st1" d="M666.38,587.81c6.35-15.43,12.21-29.56,17.98-43.72c11.79-28.94,23.59-57.88,35.24-86.88 c1.89-4.72,4.66-6.57,9.85-6.45c14.2,0.33,28.42,0.11,42.63,0.13c2.01,0,4.21-0.59,4.31,2.86c0.09,3.1-1.08,3.91-3.93,3.85 c-2.07-0.04-4.15,0.51-6.22,0.85c-9.13,1.51-13.31,5.97-13.79,15.23c-0.34,6.61-0.35,13.24-0.36,19.86 c-0.03,35.05-0.01,70.1,0,105.15c0,4.36,0.22,8.68,0.92,13.02c0.94,5.91,4.44,9,9.88,10.36c3.45,0.86,6.97,1.48,10.54,1.37 c3.38-0.11,3.88,1.76,3.91,4.6c0.03,3.03-1.79,2.86-3.81,2.86c-24.87-0.02-49.74-0.02-74.61,0.01c-2.14,0-3.73-0.14-3.78-2.99 c-0.05-2.5,0.4-3.76,3.24-4.05c4.3-0.44,8.66-0.56,12.84-2.15c4.63-1.76,7.49-4.7,8.47-9.64c0.92-4.65,0.8-9.33,0.81-14 c0.08-39.9,0.06-79.79,0.07-119.69c0-0.95-0.11-1.89-0.2-3.29c-2.1,1.28-2.35,3.27-3.01,4.91c-19.45,48.28-38.87,96.57-58.3,144.85 c-0.3,0.75-0.64,1.48-0.98,2.21c-1.03,2.14-2.39,3.8-5.05,3.87c-3,0.07-4.26-1.92-5.21-4.25c-5.26-12.82-10.49-25.65-15.75-38.47 c-14.31-34.88-28.63-69.76-42.96-104.63c-0.47-1.14-1.15-2.2-1.9-3.61c-1.24,1.54-0.8,3.01-0.8,4.31 c0,34.08-0.02,68.16,0.14,102.24c0.02,5.41,0.95,10.72,2.57,16.02c3.54,11.62,11.44,18.09,22.82,20.52 c3.47,0.74,3.46,2.48,3.46,5.03c0,2.95-1.93,2.81-3.95,2.81c-18.73-0.02-37.47-0.03-56.2-0.01c-2.07,0-4.03,0.06-3.74-2.9 c0.19-1.92-0.83-4.45,2.64-4.56c14.1-0.44,23.23-14.28,24.71-24.96c0.6-4.33,0.97-8.66,0.97-13.03 c-0.01-36.66-0.11-73.33,0.15-109.99c0.04-5.97-2.17-9.77-7.03-12.65c-5.38-3.19-11.11-5.12-17.37-5.31 c-2.16-0.07-4.06,0.23-4.08-3.1c-0.02-3.45,1.86-3.49,4.31-3.49c15.99,0.02,31.98-0.02,47.97-0.02c3.97,0,6.37,2.02,7.9,5.7 c15.8,38.11,31.69,76.18,47.56,114.26C661.37,576.02,663.58,581.18,666.38,587.81z M652.07,624.33c3.75-5.89,2.72-11.58,0.39-17.32 c-14.35-35.38-28.67-70.77-43.04-106.15c-4.49-11.05-9-22.09-14.57-32.65c-4.62-8.76-13.58-13.03-21.87-10.15 c9.61,5.42,14.66,14.11,18.63,23.62c19.21,46.1,38.43,92.2,57.65,138.3C649.87,621.43,650.08,623.12,652.07,624.33z M582.97,609.4 c-3.52,6.48-7.43,11.8-14.2,15.72c8.99,0,16.88,0,25.53,0C588.87,620.68,585.11,616.07,582.97,609.4z"/>
    <path class="st0" d="M323.89,457.96c8.44-2.41,16.97,1.32,21.27,9.13c6.86,12.45,11.95,25.71,17.32,38.83 c13.47,32.96,26.79,65.98,40.18,98.98c2.59,6.39,4.67,12.77,0.41,19.47c-2.34-1.42-2.64-3.83-3.46-5.8 c-18.85-45.21-37.61-90.46-56.43-135.68C339.05,472.97,333.98,463.72,323.89,457.96z"/>
    <path class="st0" d="M483.93,537.24c0,20.1,0.05,42.86-0.04,65.63c-0.02,3.85-0.47,7.73-0.99,11.56 c-0.94,6.85-6.29,11.14-13.08,10.73c-0.91-0.06-2.09,0.28-2.34-1.05c-0.17-0.87,0.47-1.44,1.17-1.93 c5.66-4.04,6.54-9.97,6.53-16.32c-0.02-42.15,0-84.29,0.01-126.44c0-4.52-0.01-9.04,0.87-13.51c0.37-1.91,0.86-3.79,2.18-5.3 c1.55-1.77,3.59-3.41,5.83-2.54c1.92,0.75,0.84,3.19,0.75,4.82C483.46,486.77,484.32,510.67,483.93,537.24z"/>
    <path class="st0" d="M333.96,609.16c2.17,6.93,5.8,11.55,11.4,15.9c-8.81,0-16.77,0-25.45,0 C326.22,621.17,330.51,616.17,333.96,609.16z"/>
    <path class="st0" d="M652.07,624.33c-1.99-1.21-2.2-2.9-2.8-4.34c-19.22-46.1-38.43-92.2-57.65-138.3 c-3.97-9.51-9.01-18.2-18.63-23.62c8.29-2.88,17.25,1.38,21.87,10.15c5.57,10.56,10.08,21.6,14.57,32.65 c14.36,35.37,28.69,70.77,43.04,106.15C654.78,612.75,655.82,618.44,652.07,624.33z"/>
    <path class="st0" d="M732.93,465.72c0,46.16,0.01,92.33-0.02,138.49c0,2.58-0.11,5.18-0.49,7.72c-1.44,9.7-4.56,12.57-14.03,13.11 c-0.57,0.03-1.42-0.12-1.7-0.51c-0.54-0.74-0.14-1.57,0.59-2.06c6.87-4.69,6.95-11.82,6.95-19.05 c-0.01-41.01,0.01-82.02,0.02-123.02c0-4.68-0.02-9.37,0.82-14c0.26-1.41,0.53-2.88,1.15-4.16c1.27-2.64,3.62-4.89,6.4-4.27 C735.59,458.64,732.61,459.1,732.93,465.72z"/>
    <path class="st0" d="M582.97,609.4c2.14,6.67,5.9,11.28,11.33,15.72c-8.65,0-16.54,0-25.53,0 C575.54,621.2,579.45,615.88,582.97,609.4z"/>
  </g>
</svg>